<?xml version="1.0" encoding="UTF-8" standalone="no"?>
<svg
   xmlns:dc="http://purl.org/dc/elements/1.1/"
   xmlns:cc="http://creativecommons.org/ns#"
   xmlns:rdf="http://www.w3.org/1999/02/22-rdf-syntax-ns#"
   xmlns:svg="http://www.w3.org/2000/svg"
   xmlns="http://www.w3.org/2000/svg"
   xmlns:sodipodi="http://sodipodi.sourceforge.net/DTD/sodipodi-0.dtd"
   xmlns:inkscape="http://www.inkscape.org/namespaces/inkscape"
   width="64"
   height="64"
   version="1"
   id="svg12"
   sodipodi:docname="AppInstall.svg"
   inkscape:version="0.92.3 (2405546, 2018-03-11)">
  <metadata
     id="metadata18">
    <rdf:RDF>
      <cc:Work
         rdf:about="">
        <dc:format>image/svg+xml</dc:format>
        <dc:type
           rdf:resource="http://purl.org/dc/dcmitype/StillImage" />
        <dc:title></dc:title>
      </cc:Work>
    </rdf:RDF>
  </metadata>
  <defs
     id="defs16" />
  <sodipodi:namedview
     pagecolor="#ffffff"
     bordercolor="#666666"
     borderopacity="1"
     objecttolerance="10"
     gridtolerance="10"
     guidetolerance="10"
     inkscape:pageopacity="0"
     inkscape:pageshadow="2"
     inkscape:window-width="1366"
     inkscape:window-height="710"
     id="namedview14"
     showgrid="false"
     inkscape:document-units="pt"
     inkscape:zoom="7.375"
     inkscape:cx="58.74917"
     inkscape:cy="31.4868"
     inkscape:window-x="0"
     inkscape:window-y="0"
     inkscape:window-maximized="1"
     inkscape:current-layer="svg12" />
  <path
     style="opacity:0.2"
     d="m 22.644068,8 v 2 h 16 V 8 Z M 2.6440678,51 v 2 c 0,1.662 1.338,3 3,3 H 55.644068 c 1.662,0 3,-1.338 3,-3 v -2 c 0,1.662 -1.338,3 -3,3 H 5.6440678 c -1.662,0 -3,-1.338 -3,-3 z"
     id="path2"
     inkscape:connector-curvature="0" />
  <path
     style="fill:#e4e4e4"
     d="m 22.644068,5 -4,4 v 6 H 2.6440678 v 37 c 0,1.662 1.338,3 3,3 H 55.644068 c 1.662,0 3,-1.338 3,-3 V 15 h -16 V 9 l -4,-4 z m 0,4 h 16 v 6 h -16 z"
     id="path4"
     inkscape:connector-curvature="0" />
  <rect
     style="fill:#28384c;fill-opacity:1;stroke-width:0.90649968"
     id="rect4575"
     width="31.295061"
     height="22.263174"
     x="30.475859"
     y="36.770397" />
  <g
     style="fill:#ebba16"
     id="g3740"
     transform="matrix(0.05421011,0,0,0.05421011,32.858192,40.047608)">
    <path
       inkscape:connector-curvature="0"
       d="M 128.78516,233.28516 52.964844,158.78125 128.78516,84.269531 c 6.90234,-6.78125 17.97265,-6.738281 24.8164,0.105469 6.9375,6.9375 6.875,18.21875 -0.15234,25.07031 l -47.51953,49.33594 47.51172,49.32812 c 7.02734,6.85938 7.09765,18.13282 0.14843,25.07032 -6.83203,6.84375 -17.91015,6.89453 -24.80468,0.10547 z m 0,0"
       id="path3734" />
    <path
       inkscape:connector-curvature="0"
       d="m 383.21484,233.28516 75.82032,-74.50391 -75.82032,-74.511719 c -6.90234,-6.78125 -17.97265,-6.738281 -24.8164,0.105469 -6.9375,6.9375 -6.875,18.21875 0.15234,25.07031 l 47.51953,49.33594 -47.51172,49.32812 c -7.02734,6.85938 -7.09765,18.13282 -0.14843,25.07032 6.83203,6.84375 17.91015,6.89453 24.80468,0.10547 z m 0,0"
       id="path3736" />
    <path
       inkscape:connector-curvature="0"
       d="m 221.90625,236.19141 c -8.99219,-4.53907 -12.62891,-15.67969 -8.07422,-24.78907 L 274.79297,89.273438 c 4.48437,-8.996094 15.2539,-12.625 24.13672,-8.148438 8.99609,4.539062 12.63281,15.679688 8.07422,24.78906 l -60.96094,122.12891 c -4.48438,8.99609 -15.25391,12.625 -24.13672,8.14844 z m 0,0"
       id="path3738" />
  </g>
  <path
     style="fill:none;stroke:#e4e4e4;stroke-width:0.60000002;stroke-linecap:butt;stroke-linejoin:miter;stroke-miterlimit:4;stroke-dasharray:none;stroke-opacity:1"
     d="M 32.271187,38.983051 H 59.932204"
     id="path4577"
     inkscape:connector-curvature="0" />
</svg>
